HIERARCHY
ROOT Hips
{
	OFFSET -0.001795 -0.223333 0.028219
	CHANNELS 6 Xposition Yposition Zposition Zrotation Yrotation Xrotation 
	JOINT LeftUpLeg
	{
		OFFSET 0.069520 -0.091406 -0.006815
		CHANNELS 3 Zrotation Yrotation Xrotation
		JOINT LeftLeg
		{
			OFFSET 0.034277 -0.375199 -0.004496
			CHANNELS 3 Zrotation Yrotation Xrotation
			JOINT LeftFoot
			{
				OFFSET -0.013596 -0.397961 -0.043693
				CHANNELS 3 Zrotation Yrotation Xrotation
				JOINT LeftToe
				{
					OFFSET 0.026358 -0.055791 0.119288
					CHANNELS 3 Zrotation Yrotation Xrotation
					End Site
					{
						OFFSET 0.000000 0.000000 0.000000
					}
				}
			}
		}
	}
	JOINT RightUpLeg
	{
		OFFSET -0.067670 -0.090522 -0.004320
		CHANNELS 3 Zrotation Yrotation Xrotation
		JOINT RightLeg
		{
			OFFSET -0.038290 -0.382569 -0.008850
			CHANNELS 3 Zrotation Yrotation Xrotation
			JOINT RightFoot
			{
				OFFSET 0.015774 -0.398415 -0.042312
				CHANNELS 3 Zrotation Yrotation Xrotation
				JOINT RightToe
				{
					OFFSET -0.025372 -0.048144 0.123348
					CHANNELS 3 Zrotation Yrotation Xrotation
					End Site
					{
						OFFSET 0.000000 0.000000 0.000000
					}
				}
			}
		}
	}
	JOINT Spine
	{
		OFFSET -0.002533 0.108963 -0.026696
		CHANNELS 3 Zrotation Yrotation Xrotation
		JOINT Spine1
		{
			OFFSET 0.005487 0.135180 0.001092
			CHANNELS 3 Zrotation Yrotation Xrotation
			JOINT Spine2
			{
				OFFSET 0.001457 0.052922 0.025425
				CHANNELS 3 Zrotation Yrotation Xrotation
				JOINT Neck
				{
					OFFSET -0.002778 0.213870 -0.042857
					CHANNELS 3 Zrotation Yrotation Xrotation
					JOINT Head
					{
						OFFSET 0.005152 0.064970 0.051349
						CHANNELS 3 Zrotation Yrotation Xrotation
						End Site
						{
							OFFSET 0.000000 0.000000 0.000000
						}
					}
				}
				JOINT LeftShoulder
				{
					OFFSET 0.078845 0.121749 -0.034090
					CHANNELS 3 Zrotation Yrotation Xrotation
					JOINT LeftArm
					{
						OFFSET 0.090977 0.030469 -0.008868
						CHANNELS 3 Zrotation Yrotation Xrotation
						JOINT LeftForeArm
						{
							OFFSET 0.259612 -0.012772 -0.027456
							CHANNELS 3 Zrotation Yrotation Xrotation
							JOINT LeftHand
							{
								OFFSET 0.249234 0.008986 -0.001171
								CHANNELS 3 Zrotation Yrotation Xrotation
								End Site
								{
									OFFSET 0.000000 0.000000 0.000000
								}
							}
						}
					}
				}
				JOINT RightShoulder
				{
					OFFSET -0.081759 0.118833 -0.038615
					CHANNELS 3 Zrotation Yrotation Xrotation
					JOINT RightArm
					{
						OFFSET -0.096012 0.032551 -0.009143
						CHANNELS 3 Zrotation Yrotation Xrotation
						JOINT RightForeArm
						{
							OFFSET -0.253742 -0.013329 -0.021401
							CHANNELS 3 Zrotation Yrotation Xrotation
							JOINT RightHand
							{
								OFFSET -0.255298 0.007772 -0.005559
								CHANNELS 3 Zrotation Yrotation Xrotation
								End Site
								{
									OFFSET 0.000000 0.000000 0.000000
								}
							}
						}
					}
				}
			}
		}
	}
}
MOTION
Frames: 13
Frame Time: 0.050000
0.000000 0.929961 0.000000 1.617002 -5.300034 -5.100666 4.067429 0.480010 6.716361 -3.397839 0.425815 -1.670155 3.768997 9.408050 6.724126 0.000000 0.000000 0.000000 -9.438993 0.202568 5.791113 4.057542 -0.374620 1.707719 -6.179261 -15.886237 5.104972 0.000000 0.000000 0.000000 5.271730 -0.722872 9.452232 -5.977970 2.035550 -23.330381 -1.581266 9.206165 22.518688 10.494978 -2.323796 -32.495487 0.000000 0.000000 0.000000 -20.165766 -13.469503 4.456020 -47.102425 -3.856192 -5.484584 -17.559883 -24.644981 4.657597 0.000000 0.000000 0.000000 27.870750 1.730266 1.392949 50.126286 6.625622 -4.717600 9.677657 21.692190 2.729519 0.000000 0.000000 0.000000
-0.000297 0.929088 0.000305 1.937000 -6.137162 -5.351416 3.656017 0.567874 7.412971 -3.192227 0.412375 -2.192049 3.860066 9.254598 5.059548 0.000000 0.000000 0.000000 -9.776656 0.259835 5.642665 3.788418 -0.330321 2.406749 -6.351048 -16.255920 5.276134 0.000000 0.000000 0.000000 5.322462 -0.816448 10.808284 -6.722642 2.194221 -24.161480 -1.387286 9.606696 21.924074 11.093437 -2.081920 -35.916969 0.000000 0.000000 0.000000 -19.603701 -13.971114 3.927650 -47.055061 -3.534436 -5.566390 -18.193823 -24.460499 4.754042 0.000000 0.000000 0.000000 28.168316 1.541051 1.212073 50.918968 6.092613 -4.939299 9.872967 21.636604 2.765569 0.000000 0.000000 0.000000
-0.000897 0.928606 0.000396 2.073583 -5.961688 -5.625031 3.821103 0.577523 7.658820 -3.367463 0.428686 -1.697443 4.150788 9.725163 4.521369 0.000000 0.000000 0.000000 -9.924191 0.261513 6.058936 4.085668 -0.368209 2.069678 -6.104357 -15.690848 4.894278 0.000000 0.000000 0.000000 5.325747 -0.852473 11.332971 -6.358999 2.095879 -24.555573 -1.782200 8.950540 22.142523 11.295538 -1.858369 -38.725475 0.000000 0.000000 0.000000 -19.662271 -14.364115 4.537271 -46.923889 -3.820456 -5.520009 -17.657492 -23.799492 4.532076 0.000000 0.000000 0.000000 29.418728 2.416210 1.599284 49.520973 6.051273 -4.889811 10.126159 21.995461 2.826166 0.000000 0.000000 0.000000
-0.001707 0.928265 0.000400 2.376991 -6.115290 -6.321279 3.712830 0.675358 8.746454 -3.520527 0.449562 -2.133447 4.210372 9.829707 4.405742 0.000000 0.000000 0.000000 -10.014895 0.261231 6.318810 4.130960 -0.367546 2.683650 -6.715176 -16.929693 4.931504 0.000000 0.000000 0.000000 4.933911 -0.917429 12.977766 -6.180182 2.045065 -25.034807 -2.219148 8.575610 21.203257 11.583781 -1.681385 -40.911873 0.000000 0.000000 0.000000 -19.395205 -14.925930 5.621239 -46.592457 -3.337796 -5.614395 -17.908600 -23.813074 4.590400 0.000000 0.000000 0.000000 30.554811 2.760245 1.634503 48.937317 5.535768 -4.971243 10.009971 22.253281 2.820190 0.000000 0.000000 0.000000
-0.002806 0.928170 0.000414 2.430330 -6.425471 -6.705445 3.434675 0.710177 8.844418 -3.013768 0.392723 -1.617031 4.522702 10.425218 4.401014 0.000000 0.000000 0.000000 -9.944295 0.259942 6.569655 4.109000 -0.360593 2.860816 -6.550443 -16.593666 4.930931 0.000000 0.000000 0.000000 4.766447 -0.947745 13.883150 -5.679349 1.926449 -24.658634 -2.655820 8.337191 20.132835 11.664277 -1.784044 -40.512264 0.000000 0.000000 0.000000 -19.085852 -15.295473 6.696074 -46.674549 -3.399447 -5.535215 -17.893269 -23.685268 4.564598 0.000000 0.000000 0.000000 30.878035 2.919640 1.536352 48.783573 5.509647 -4.832885 10.507549 23.245829 3.046483 0.000000 0.000000 0.000000
-0.004028 0.927877 0.000623 2.343702 -6.626311 -7.093444 3.647014 0.750630 9.418666 -3.100940 0.405104 -1.745823 4.722427 10.782348 4.181097 0.000000 0.000000 0.000000 -9.753745 0.240547 6.839392 4.185993 -0.366928 2.994967 -6.592656 -16.646658 4.751666 0.000000 0.000000 0.000000 4.638850 -0.988158 14.899920 -5.486729 1.872660 -25.000284 -2.655846 8.048979 19.941221 11.486370 -1.658281 -41.146641 0.000000 0.000000 0.000000 -19.343580 -15.766287 5.804894 -46.740337 -3.526883 -5.503615 -17.149284 -23.497913 4.382955 0.000000 0.000000 0.000000 31.471615 3.196115 1.553325 49.033852 5.603439 -4.768892 10.877279 23.804131 3.196654 0.000000 0.000000 0.000000
-0.005243 0.927999 0.001029 2.185604 -6.806734 -7.214339 3.736672 0.756398 9.501398 -2.860898 0.378377 -1.702260 4.787476 10.956080 4.544638 0.000000 0.000000 0.000000 -9.393895 0.210036 6.955929 4.124539 -0.356639 3.167734 -6.366915 -16.162140 4.604263 0.000000 0.000000 0.000000 4.701664 -1.014124 15.282865 -5.412458 1.854550 -24.785173 -2.808277 7.746603 19.667919 11.629154 -1.780460 -40.983696 0.000000 0.000000 0.000000 -19.301458 -15.908175 5.726001 -46.772720 -3.916324 -5.371891 -16.966772 -24.304031 4.514390 0.000000 0.000000 0.000000 31.629490 3.482641 1.582587 49.487892 5.614321 -4.730765 10.908754 24.321913 3.276040 0.000000 0.000000 0.000000
-0.006356 0.927938 0.001781 1.909426 -6.725136 -7.273427 4.123722 0.739819 9.630378 -2.768927 0.366315 -1.609996 4.723334 10.809107 4.351201 0.000000 0.000000 0.000000 -9.007684 0.166459 6.988349 4.233999 -0.368966 3.387359 -6.188325 -15.721296 4.178062 0.000000 0.000000 0.000000 4.686403 -1.032440 15.570596 -5.259399 1.818582 -24.736216 -2.847489 7.669539 19.379988 11.713152 -1.811328 -40.925865 0.000000 0.000000 0.000000 -19.422560 -16.471802 6.309060 -46.976078 -4.061207 -5.310973 -16.203297 -24.810209 4.442757 0.000000 0.000000 0.000000 31.734438 3.352897 1.488208 49.781685 5.636844 -4.721300 11.136920 24.483425 3.353750 0.000000 0.000000 0.000000
-0.007346 0.927893 0.002709 1.689802 -6.668702 -7.435188 4.399946 0.738424 9.857107 -2.727253 0.362096 -1.696810 4.734446 10.843191 4.410928 0.000000 0.000000 0.000000 -8.763263 0.134878 7.223825 4.246731 -0.372691 3.284335 -6.019641 -15.432152 4.459269 0.000000 0.000000 0.000000 4.669377 -1.043482 15.779140 -5.371567 1.848752 -24.770712 -2.827951 7.421669 19.224073 11.574830 -1.750731 -41.058937 0.000000 0.000000 0.000000 -19.509600 -16.517494 6.918622 -46.956791 -4.613055 -5.102376 -16.060272 -25.292564 4.508003 0.000000 0.000000 0.000000 31.793756 3.702251 1.646069 49.731579 5.629655 -4.686295 11.618887 24.497683 3.444841 0.000000 0.000000 0.000000
-0.008219 0.927802 0.003722 1.618911 -6.826548 -7.521612 4.431534 0.747244 9.939304 -2.670351 0.356616 -1.711841 4.744378 10.837897 4.242483 0.000000 0.000000 0.000000 -8.637217 0.125699 7.352948 4.170738 -0.363178 3.178463 -5.854943 -15.075723 4.374858 0.000000 0.000000 0.000000 4.598470 -1.035939 15.864084 -5.491783 1.875603 -24.871563 -2.824442 7.427860 19.092840 11.801220 -1.867862 -40.933323 0.000000 0.000000 0.000000 -19.437065 -16.870234 5.742096 -47.025810 -4.797998 -5.037695 -15.474338 -26.086184 4.522675 0.000000 0.000000 0.000000 31.746719 3.925576 1.762838 49.699848 5.393932 -4.756590 12.373014 24.854410 3.657469 0.000000 0.000000 0.000000
-0.008841 0.927645 0.004723 1.476764 -7.020433 -7.584693 4.700827 0.746550 10.091816 -2.795436 0.372994 -1.824006 4.870164 11.095673 4.361005 0.000000 0.000000 0.000000 -8.740826 0.139477 7.534155 4.360148 -0.385327 2.917603 -5.671957 -14.729836 4.520563 0.000000 0.000000 0.000000 4.632385 -1.031527 15.798376 -5.610857 1.903035 -24.867395 -2.844966 7.513690 18.947174 12.011017 -1.927516 -41.052036 0.000000 0.000000 0.000000 -19.551727 -17.169437 5.717183 -47.187546 -5.101202 -4.925320 -15.101421 -26.367529 4.486032 0.000000 0.000000 0.000000 31.718496 4.060597 1.845387 49.883205 5.338348 -4.776259 12.655008 24.854519 3.716314 0.000000 0.000000 0.000000
-0.009232 0.927375 0.005647 1.394015 -7.396811 -7.627163 4.908640 0.746978 10.133305 -2.900642 0.387200 -1.860508 5.111815 11.563491 4.427964 0.000000 0.000000 0.000000 -8.744622 0.152659 7.565071 4.445793 -0.390289 2.994753 -5.563283 -14.451659 4.289546 0.000000 0.000000 0.000000 4.623537 -1.020114 15.754238 -5.532523 1.872735 -24.942225 -2.895212 7.521310 18.947298 12.481822 -2.080919 -41.424259 0.000000 0.000000 0.000000 -19.697100 -17.368254 6.400518 -47.141510 -5.009668 -4.963607 -14.885416 -26.738634 4.507805 0.000000 0.000000 0.000000 31.707676 4.455594 2.027008 49.744377 5.390756 -4.718172 12.906509 24.673445 3.723413 0.000000 0.000000 0.000000
-0.009448 0.927158 0.006420 1.232719 -7.498712 -7.501418 5.161592 0.728904 10.089105 -3.034272 0.403404 -1.937532 5.283269 11.899274 4.506875 0.000000 0.000000 0.000000 -8.548604 0.137983 7.605001 4.575720 -0.404939 2.797509 -5.446103 -14.186569 4.197047 0.000000 0.000000 0.000000 4.673116 -1.010347 15.479919 -5.551887 1.878299 -24.686890 -2.811324 7.333093 18.826014 12.980169 -2.215879 -41.929752 0.000000 0.000000 0.000000 -19.886253 -17.450773 7.032207 -47.122173 -4.716185 -5.068398 -14.818967 -26.763704 4.505087 0.000000 0.000000 0.000000 31.609941 4.716323 2.090478 49.492401 5.144322 -4.743572 13.089703 24.652559 3.739781 0.000000 0.000000 0.000000
